<?xml version="1.0" standalone="no"?><!-- Generator: Gravit.io --><svg xmlns="http://www.w3.org/2000/svg" xmlns:xlink="http://www.w3.org/1999/xlink" style="isolation:isolate" viewBox="-114 -93 1266 712.125" width="1266" height="712.125"><rect x="-114" y="-93" width="1266" height="712.125" transform="matrix(1,0,0,1,0,0)" fill="rgb(72,51,98)"/><g id="Group"><path d=" M 175 273.063 C 175 267.543 179.481 263.063 185 263.063 C 190.519 263.063 195 267.543 195 273.063 C 195 278.582 190.519 283.063 185 283.063 C 179.481 283.063 175 278.582 175 273.063 Z " fill="rgb(255,255,255)"/><line x1="185" y1="286.063" x2="185" y2="283.063" vector-effect="non-scaling-stroke" stroke-width="2" stroke="rgb(255,255,255)" stroke-linejoin="miter" stroke-linecap="square" stroke-miterlimit="3"/><line x1="175" y1="288.063" x2="244" y2="288.063" vector-effect="non-scaling-stroke" stroke-width="3" stroke="rgb(255,255,255)" stroke-linejoin="miter" stroke-linecap="square" stroke-miterlimit="3"/><path d="M 157.6 294.063 L 262.4 294.063 C 264.387 294.063 266 295.676 266 297.663 L 266 335.463 C 266 337.449 264.387 339.063 262.4 339.063 L 157.6 339.063 C 155.613 339.063 154 337.449 154 335.463 L 154 297.663 C 154 295.676 155.613 294.063 157.6 294.063 Z" style="stroke:none;fill:#FFFFFF;stroke-miterlimit:10;"/><path d="M 253.834 337.063 L 260.166 337.063 C 261.178 337.063 262 337.884 262 338.896 L 262 345.229 C 262 346.241 261.178 347.063 260.166 347.063 L 253.834 347.063 C 252.822 347.063 252 346.241 252 345.229 L 252 338.896 C 252 337.884 252.822 337.063 253.834 337.063 Z" style="stroke:none;fill:#FFFFFF;stroke-miterlimit:10;"/><path d="M 159.834 337.063 L 166.166 337.063 C 167.178 337.063 168 337.884 168 338.896 L 168 345.229 C 168 346.241 167.178 347.063 166.166 347.063 L 159.834 347.063 C 158.822 347.063 158 346.241 158 345.229 L 158 338.896 C 158 337.884 158.822 337.063 159.834 337.063 Z" style="stroke:none;fill:#FFFFFF;stroke-miterlimit:10;"/><line x1="210" y1="288.063" x2="210" y2="281.063" vector-effect="non-scaling-stroke" stroke-width="3" stroke="rgb(255,255,255)" stroke-linejoin="miter" stroke-linecap="square" stroke-miterlimit="3"/><rect x="204" y="288.063" width="12" height="6" transform="matrix(1,0,0,1,0,0)" fill="rgb(255,255,255)"/><path d=" M 131 242.063 C 131 238.751 133.689 236.063 137 236.063 C 140.311 236.063 143 238.751 143 242.063 C 143 245.374 140.311 248.063 137 248.063 C 133.689 248.063 131 245.374 131 242.063 Z " fill="rgb(255,255,255)"/><path d=" M 172.958 272.989 C 158.456 271.942 147 259.829 147 245.063 C 147 233.386 154.162 223.37 164.329 219.171" fill="none" vector-effect="non-scaling-stroke" stroke-width="5" stroke="rgb(255,255,255)" stroke-linejoin="miter" stroke-linecap="square" stroke-miterlimit="3"/><path d=" M 163 310.903 C 146.474 297.899 135.853 277.719 135.853 255.078 C 135.853 252.03 136.046 249.027 136.419 246.08" fill="none" vector-effect="non-scaling-stroke" stroke-width="8" stroke="rgb(255,255,255)" stroke-linejoin="miter" stroke-linecap="square" stroke-miterlimit="3"/><rect x="137.001" y="248.064" width="10" height="7" transform="matrix(1,0,0,1,0.058,-0.033)" fill="rgb(255,255,255)"/><path d=" M 239.934 133.259 L 241.545 131.473 L 261.397 177.17 L 281.249 222.868 L 279.022 222.83 C 247.399 213.815 210.351 212.675 172.395 221.003 L 160.95 220.806 L 168.671 212.249 C 200.56 190.228 224.947 162.447 239.934 133.259 Z " fill="rgb(255,255,255)"/></g><g transform="matrix(1,0,0,1,277.249,188)"><text transform="matrix(1,0,0,1,0,157.698)" style="font-family:&quot;Abel&quot;;font-weight:400;font-size:161px;font-style:normal;fill:#ffffff;stroke:none;">ramophone</text></g></svg>