<?xml version="1.0" standalone="no"?><!-- Generator: Gravit.io --><svg xmlns="http://www.w3.org/2000/svg" xmlns:xlink="http://www.w3.org/1999/xlink" style="isolation:isolate" viewBox="127 131.41 150.249 215.59" width="150.249" height="215.59"><path d=" M 171 273 C 171 267.481 175.481 263 181 263 C 186.519 263 191 267.481 191 273 C 191 278.519 186.519 283 181 283 C 175.481 283 171 278.519 171 273 Z " fill="rgb(0,0,0)"/><line x1="181" y1="286" x2="181" y2="283" vector-effect="non-scaling-stroke" stroke-width="2" stroke="rgb(0,0,0)" stroke-linejoin="miter" stroke-linecap="square" stroke-miterlimit="3"/><line x1="171" y1="288" x2="240" y2="288" vector-effect="non-scaling-stroke" stroke-width="3" stroke="rgb(0,0,0)" stroke-linejoin="miter" stroke-linecap="square" stroke-miterlimit="3"/><path d="M 153.6 294 L 258.4 294 C 260.387 294 262 295.613 262 297.6 L 262 335.4 C 262 337.387 260.387 339 258.4 339 L 153.6 339 C 151.613 339 150 337.387 150 335.4 L 150 297.6 C 150 295.613 151.613 294 153.6 294 Z" style="stroke:none;fill:#000000;stroke-miterlimit:10;"/><path d="M 153.6 294 L 258.4 294 C 260.387 294 262 295.613 262 297.6 L 262 335.4 C 262 337.387 260.387 339 258.4 339 L 153.6 339 C 151.613 339 150 337.387 150 335.4 L 150 297.6 C 150 295.613 151.613 294 153.6 294 Z" style="fill:none;stroke:#000000;stroke-width:1;stroke-linecap:square;stroke-miterlimit:3;"/><path d="M 249.834 337 L 256.166 337 C 257.178 337 258 337.822 258 338.834 L 258 345.166 C 258 346.178 257.178 347 256.166 347 L 249.834 347 C 248.822 347 248 346.178 248 345.166 L 248 338.834 C 248 337.822 248.822 337 249.834 337 Z" style="stroke:none;fill:#000000;stroke-linecap:square;stroke-miterlimit:3;"/><path d="M 155.834 337 L 162.166 337 C 163.178 337 164 337.822 164 338.834 L 164 345.166 C 164 346.178 163.178 347 162.166 347 L 155.834 347 C 154.822 347 154 346.178 154 345.166 L 154 338.834 C 154 337.822 154.822 337 155.834 337 Z" style="stroke:none;fill:#000000;stroke-linecap:square;stroke-miterlimit:3;"/><line x1="206" y1="288" x2="206" y2="281" vector-effect="non-scaling-stroke" stroke-width="3" stroke="rgb(0,0,0)" stroke-linejoin="miter" stroke-linecap="square" stroke-miterlimit="3"/><rect x="200" y="288" width="12" height="6" transform="matrix(1,0,0,1,0,0)" fill="rgb(0,0,0)"/><path d=" M 127 242 C 127 238.689 129.689 236 133 236 C 136.311 236 139 238.689 139 242 C 139 245.311 136.311 248 133 248 C 129.689 248 127 245.311 127 242 Z " fill="rgb(0,0,0)"/><path d=" M 168.958 272.926 C 154.456 271.879 143 259.767 143 245 C 143 233.324 150.162 223.308 160.329 219.108" fill="none" vector-effect="non-scaling-stroke" stroke-width="5" stroke="rgb(0,0,0)" stroke-linejoin="miter" stroke-linecap="square" stroke-miterlimit="3"/><path d=" M 159 310.841 C 142.474 297.836 131.853 277.656 131.853 255.015 C 131.853 251.968 132.046 248.964 132.419 246.017" fill="none" vector-effect="non-scaling-stroke" stroke-width="8" stroke="rgb(0,0,0)" stroke-linejoin="miter" stroke-linecap="square" stroke-miterlimit="3"/><rect x="133.001" y="248.001" width="10" height="7" transform="matrix(1,0,0,1,0.058,-0.032)" fill="rgb(0,0,0)"/><path d=" M 235.934 133.196 L 237.545 131.41 L 257.397 177.108 L 277.249 222.806 L 275.022 222.768 C 243.399 213.753 206.351 212.613 168.395 220.94 L 156.95 220.744 L 164.671 212.186 C 196.56 190.166 220.947 162.384 235.934 133.196 Z " fill="rgb(0,0,0)"/></svg>